<svg xmlns="http://www.w3.org/2000/svg" viewBox="0 0 400 200" fill="none">
  <rect width="400" height="200" fill="#0f1117"/>
  <!-- Track outline -->
  <path d="M80 150 L80 80 Q80 50 110 50 L200 50 Q240 50 260 70 L300 110 Q320 130 320 150 L320 160 Q320 170 310 170 L90 170 Q80 170 80 160 Z"
    stroke="#E10600" stroke-width="6" fill="none" stroke-linejoin="round"/>
  <!-- Track inner -->
  <path d="M100 150 L100 90 Q100 70 120 70 L200 70 Q230 70 245 85 L280 118 Q295 132 295 150 L295 155 Q295 160 290 160 L110 160 Q100 160 100 150 Z"
    stroke="#333" stroke-width="3" fill="#0f1117" stroke-linejoin="round"/>
  <!-- Start/Finish line -->
  <rect x="88" y="150" width="12" height="20" fill="#fff" opacity="0.7"/>
  <!-- DRS detection dot -->
  <circle cx="200" cy="50" r="4" fill="#E10600"/>
  <!-- Labels -->
  <text x="200" y="192" text-anchor="middle" fill="#555" font-family="monospace" font-size="11">CIRCUIT MAP</text>
</svg>
